#!OML:ASF H:\IndianDance\Patient Classification 1\Patient 1\Session 1\dancer.ASF
:FULLY-SPECIFIED
:DEGREES
1841
root 6.58782 15.7956 1.37868 73.8915 -87.1009 -65.1994
lowerback -1.72774 2.07858 0.368426
upperback -5.42974 2.68072 0.230229
thorax -4.62483 1.27894 -0.026864
lowerneck -21.1039 0.314078 2.96284
upperneck 31.5166 -0.963895 -0.732382
head 14.351 -0.357064 -1.03702
rclavicle -3.38058e-014 -9.34288e-015
rhumerus -7.96159 17.5033 -6.56202
rradius 24.9709
rwrist -13.6237
rhand 7.55606 -3.236
rfingers 7.12502
rthumb 32.8048 -30.2772
lclavicle -3.38058e-014 -9.34288e-015
lhumerus -4.45967 -10.896 2.572
lradius 25.551
lwrist 3.32962
lhand 15.4941 21.787
lfingers 7.12502
lthumb 40.3165 46.9168
rfemur -13.0196 13.1705 12.6964
rtibia 21.5235
rfoot -9.33974 -29.6627
rtoes -2.51084
lfemur -9.42827 -8.74981 -10.2894
ltibia 16.7328
lfoot -8.42748 29.0931
ltoes 0.19447
1842
root 6.59047 15.7981 1.3731 73.1933 -87.0172 -64.5338
lowerback -1.71685 2.06399 0.423964
upperback -5.41348 2.66378 0.268526
thorax -4.61326 1.26933 -0.0180215
lowerneck -21.0639 0.294277 2.91619
upperneck 31.4827 -1.01088 -0.62654
head 14.3274 -0.367924 -0.993723
rclavicle 1.68594e-014 3.77691e-015
rhumerus -7.9679 17.5894 -6.61642
rradius 25.0011
rwrist -13.6279
rhand 7.75951 -3.28452
rfingers 7.12502
rthumb 32.9983 -30.2851
lclavicle 1.68594e-014 3.77691e-015
lhumerus -4.50432 -11.0992 2.62432
lradius 25.5916
lwrist 3.47209
lhand 15.8434 21.7747
lfingers 7.12502
lthumb 40.6449 46.8029
rfemur -13.0273 13.028 12.7721
rtibia 21.6061
rfoot -9.2998 -29.4235
rtoes -2.68233
lfemur -9.33837 -8.90218 -10.1971
ltibia 16.5865
lfoot -8.43325 29.1825
ltoes 0.444161
1843
root 6.59337 15.8004 1.3677 72.411 -86.941 -63.7755
lowerback -1.71541 2.04856 0.465901
upperback -5.39681 2.64533 0.304436
thorax -4.59643 1.2595 -0.00366509
lowerneck -21.0262 0.273388 2.86512
upperneck 31.4475 -1.05787 -0.520035
head 14.3037 -0.379219 -0.949437
rclavicle 1.09829e-014 -2.18663e-015
rhumerus -7.9773 17.6784 -6.66877
rradius 25.0346
rwrist -13.6342
rhand 7.97396 -3.33166
rfingers 7.12502
rthumb 33.2023 -30.289
lclavicle 1.09829e-014 -2.18663e-015
lhumerus -4.53478 -11.3107 2.66989
lradius 25.6302
lwrist 3.59243
lhand 16.2158 21.7391
lfingers 7.12502
lthumb 40.9949 46.6571
rfemur -13.0429 12.9317 12.8295
rtibia 21.6897
rfoot -9.26784 -29.2202
rtoes -2.89568
lfemur -9.26033 -9.06166 -10.114
ltibia 16.4415
lfoot -8.43981 29.2747
ltoes 0.680281
1844
root 6.59655 15.8024 1.36245 71.5267 -86.8738 -62.9069
lowerback -1.72038 2.03135 0.492097
upperback -5.38224 2.62405 0.337941
thorax -4.57878 1.24883 0.0172317
lowerneck -20.9974 0.25266 2.81866
upperneck 31.4222 -1.10295 -0.425336
head 14.2865 -0.39081 -0.91064
rclavicle 5.76103e-014 1.15295e-014
rhumerus -7.98698 17.7705 -6.71807
rradius 25.0681
rwrist -13.6443
rhand 8.17807 -3.3665
rfingers 7.12502
rthumb 33.3963 -30.2822
lclavicle 5.76103e-014 1.15295e-014
lhumerus -4.55122 -11.5112 2.71032
lradius 25.6634
lwrist 3.67651
lhand 16.6154 21.6922
lfingers 7.12502
lthumb 41.37 46.4899
rfemur -13.0649 12.8689 12.8678
rtibia 21.7714
rfoot -9.24313 -29.0455
rtoes -3.13167
lfemur -9.1959 -9.2155 -10.042
ltibia 16.3008
lfoot -8.43798 29.3584
ltoes 0.869779
1845
root 6.60005 15.804 1.35726 70.6172 -86.8146 -62.0061
lowerback -1.72943 2.0137 0.503694
upperback -5.36973 2.60184 0.369871
thorax -4.56155 1.23824 0.0447572
lowerneck -20.9742 0.232052 2.7718
upperneck 31.4031 -1.14697 -0.334042
head 14.2733 -0.402473 -0.873117
rclavicle 2.15184e-014 -4.57205e-015
rhumerus -7.9956 17.8579 -6.76368
rradius 25.0978
rwrist -13.6526
rhand 8.35363 -3.3877
rfingers 7.12502
rthumb 33.5632 -30.2674
lclavicle 2.15184e-014 -4.57205e-015
lhumerus -4.55444 -11.6901 2.74562
lradius 25.6916
lwrist 3.7204
lhand 17.0368 21.654
lfingers 7.12502
lthumb 41.7653 46.3222
rfemur -13.0909 12.8322 12.8921
rtibia 21.8475
rfoot -9.22573 -28.8959
rtoes -3.39286
lfemur -9.14585 -9.36074 -9.97859
ltibia 16.1701
lfoot -8.42904 29.4341
ltoes 1.01498
1846
root 6.60388 15.805 1.3522 69.7033 -86.764 -61.0961
lowerback -1.74062 1.99585 0.501818
upperback -5.35895 2.57906 0.399879
thorax -4.54544 1.22785 0.0778496
lowerneck -20.9622 0.211532 2.727
upperneck 31.397 -1.18961 -0.251347
head 14.2683 -0.414482 -0.839449
rclavicle 9.29318e-015 -1.98785e-015
rhumerus -8.00282 17.9278 -6.80619
rradius 25.1218
rwrist -13.6468
rhand 8.49106 -3.39203
rfingers 7.12502
rthumb 33.6938 -30.2432
lclavicle 9.29318e-015 -1.98785e-015
lhumerus -4.54367 -11.8307 2.77758
lradius 25.7125
lwrist 3.72243
lhand 17.4709 21.6216
lfingers 7.12502
lthumb 42.1722 46.1537
rfemur -13.1176 12.8054 12.9051
rtibia 21.9133
rfoot -9.21305 -28.7634
rtoes -3.66566
lfemur -9.11158 -9.49298 -9.92452
ltibia 16.0571
lfoot -8.41731 29.4996
ltoes 1.11209
1847
root 6.60816 15.8053 1.34723 68.7917 -86.721 -60.1844
lowerback -1.75111 1.97782 0.488386
upperback -5.35067 2.55578 0.427471
thorax -4.5327 1.21759 0.114816
lowerneck -20.9527 0.192985 2.68552
upperneck 31.396 -1.22904 -0.174203
head 14.2661 -0.425515 -0.808117
rclavicle 2.12575e-014 5.96354e-016
rhumerus -8.00862 17.975 -6.84663
rradius 25.1413
rwrist -13.6184
rhand 8.58309 -3.37997
rfingers 7.12502
rthumb 33.7812 -30.212
lclavicle 2.12575e-014 5.96354e-016
lhumerus -4.52297 -11.9313 2.80416
lradius 25.7324
lwrist 3.69807
lhand 17.9115 21.6128
lfingers 7.12502
lthumb 42.5847 46.0039
rfemur -13.1427 12.7757 12.9112
rtibia 21.9642
rfoot -9.203 -28.6474
rtoes -3.9334
lfemur -9.09718 -9.61056 -9.87895
ltibia 15.9705
lfoot -8.40442 29.5545
ltoes 1.16058
1848
root 6.61297 15.8049 1.34234 67.9009 -86.6838 -59.2893
lowerback -1.75933 1.95959 0.46577
upperback -5.34454 2.53207 0.452827
thorax -4.52378 1.20741 0.154472
lowerneck -20.9527 0.176143 2.65083
upperneck 31.4028 -1.26606 -0.1059
head 14.2696 -0.435877 -0.781254
rclavicle 2.47735e-014 3.97569e-015
rhumerus -8.01428 18.003 -6.88467
rradius 25.1593
rwrist -13.5691
rhand 8.62943 -3.36622
rfingers 7.12502
rthumb 33.8253 -30.1886
lclavicle 2.47735e-014 3.97569e-015
lhumerus -4.49504 -11.9928 2.82377
lradius 25.7557
lwrist 3.6664
lhand 18.3428 21.6376
lfingers 7.12502
lthumb 42.9883 45.8877
rfemur -13.1663 12.7433 12.9155
rtibia 21.9978
rfoot -9.19677 -28.5587
rtoes -4.15638
lfemur -9.10612 -9.71022 -9.83901
ltibia 15.9155
lfoot -8.40152 29.5961
ltoes 1.19326
1849
root 6.61829 15.8038 1.33757 67.0348 -86.6512 -58.416
lowerback -1.76238 1.9415 0.437841
upperback -5.33979 2.50845 0.475106
thorax -4.5193 1.1974 0.193701
lowerneck -20.9529 0.162144 2.61559
upperneck 31.4069 -1.29939 -0.0349694
head 14.272 -0.444311 -0.752521
rclavicle 7.64079e-016 1.78906e-015
rhumerus -8.02107 18.009 -6.92106
rradius 25.1768
rwrist -13.4931
rhand 8.64372 -3.33141
rfingers 7.12502
rthumb 33.8388 -30.1508
lclavicle 7.64079e-016 1.78906e-015
lhumerus -4.46072 -12.0221 2.83518
lradius 25.7822
lwrist 3.63784
lhand 18.7304 21.6783
lfingers 7.12502
lthumb 43.3506 45.7991
rfemur -13.1875 12.7079 12.9215
rtibia 22.0141
rfoot -9.20041 -28.5066
rtoes -4.29317
lfemur -9.13684 -9.7913 -9.80405
ltibia 15.892
lfoot -8.39621 29.6261
ltoes 1.18339
1850
root 6.62417 15.8022 1.33288 66.1853 -86.6224 -57.5556
lowerback -1.76205 1.92378 0.405002
upperback -5.33652 2.4852 0.494287
thorax -4.5183 1.18769 0.232318
lowerneck -20.9536 0.150551 2.58717
upperneck 31.4074 -1.32918 0.0296174
head 14.2729 -0.451273 -0.726843
rclavicle -2.64321e-014 -1.07344e-014
rhumerus -8.03118 18.0022 -6.95538
rradius 25.1963
rwrist -13.3994
rhand 8.63633 -3.28909
rfingers 7.12502
rthumb 33.8318 -30.11
lclavicle -2.64321e-014 -1.07344e-014
lhumerus -4.42051 -12.0258 2.83819
lradius 25.8127
lwrist 3.62137
lhand 19.0544 21.7251
lfingers 7.12502
lthumb 43.6532 45.7362
rfemur -13.2089 12.6791 12.9308
rtibia 22.0148
rfoot -9.21747 -28.5044
rtoes -4.30952
lfemur -9.18939 -9.85724 -9.77254
ltibia 15.8968
lfoot -8.39899 29.6446
ltoes 1.16519
1851
root 6.63059 15.8003 1.32827 65.3056 -86.5997 -56.6624
lowerback -1.75645 1.906 0.365581
upperback -5.33297 2.46177 0.508765
thorax -4.52003 1.17809 0.269584
lowerneck -20.9463 0.142024 2.56111
upperneck 31.3913 -1.35402 0.0944812
head 14.2648 -0.455782 -0.700314
rclavicle -9.74045e-015 -5.76476e-015
rhumerus -8.04583 17.9918 -6.98776
rradius 25.2195
rwrist -13.3033
rhand 8.62353 -3.2371
rfingers 7.12502
rthumb 33.8197 -30.0607
lclavicle -9.74045e-015 -5.76476e-015
lhumerus -4.37505 -12.0119 2.83117
lradius 25.8475
lwrist 3.62266
lhand 19.3027 21.7647
lfingers 7.12502
lthumb 43.8849 45.6904
rfemur -13.2305 12.6732 12.9396
rtibia 22.0035
rfoot -9.24287 -28.5724
rtoes -4.18912
lfemur -9.25875 -9.90604 -9.74865
ltibia 15.9232
lfoot -8.39809 29.6488
ltoes 1.1214
